<?xml version="1.0" encoding="utf-8"?>
<!-- Generator: Adobe Illustrator 19.0.0, SVG Export Plug-In . SVG Version: 6.00 Build 0)  -->
<!DOCTYPE svg PUBLIC "-//W3C//DTD SVG 1.1//EN" "http://www.w3.org/Graphics/SVG/1.1/DTD/svg11.dtd">
<svg version="1.1" id="Layer_1" xmlns="http://www.w3.org/2000/svg" xmlns:xlink="http://www.w3.org/1999/xlink" x="0px" y="0px"
	 width="293.5px" height="159.5px" viewBox="0 0 293.5 159.5" style="enable-background:new 0 0 293.5 159.5;" xml:space="preserve"
	>
<style type="text/css">
	.st0{fill:#ECE3D2;}
	.st1{fill:#4B4A4B;}
	.st2{fill:none;}
	.st3{font-family:'Helvetica';}
	.st4{font-size:7.6007px;}
</style>
<g id="XMLID_2_">
	<g id="XMLID_3_">
		<path id="XMLID_4_" class="st0" d="M202.9,37.8C203,37.8,203,37.8,202.9,37.8C203,37.7,202.9,37.8,202.9,37.8z"/>
	</g>
</g>
<g id="XMLID_5_">
	<g id="XMLID_6_">
		<path id="XMLID_7_" class="st0" d="M153.2,74.1c-0.4,0-0.6,0.4-0.7,1c0,0,0,0-0.1-0.1V75c0,0,0,0,0,0c-0.1,0.8,0.1,1.8,0.6,1.8
			C154.1,76.8,154.2,74.1,153.2,74.1z"/>
	</g>
</g>
<g id="XMLID_8_">
	<g id="XMLID_9_">
		<path id="XMLID_10_" class="st1" d="M179.2,83.9c0,3-0.2,5.4-0.5,7.2c-0.4,1.8-1,3.2-2.1,4.1c-1,1-2.4,1.6-4.1,1.9
			c-1.8,0.3-4,0.5-6.8,0.5c-2.8,0-5.1-0.2-6.8-0.5c-1.8-0.3-3.1-0.9-4.1-1.9s-1.7-2.3-2-4.1c-0.4-1.8-0.5-4.2-0.5-7.2V44.8
			c0-3,0.2-5.4,0.5-7.2c0.4-1.8,1-3.1,2-4.1c1-1,2.3-1.6,4.1-1.9c1.7-0.3,4-0.5,6.8-0.5c2.8,0,5.1,0.2,6.8,0.5
			c1.7,0.3,3.1,0.9,4.1,1.9c1,1,1.7,2.3,2.1,4.1c0.4,1.8,0.5,4.2,0.5,7.2V83.9z M169.7,44.8c0-2.2-0.2-3.6-0.7-4.2s-1.6-0.9-3.3-0.9
			c-0.9,0-1.6,0.1-2.1,0.2c-0.5,0.1-0.9,0.4-1.2,0.8c-0.3,0.4-0.5,0.9-0.6,1.6c-0.1,0.7-0.1,1.5-0.1,2.6v39.1c0,1.1,0,2.1,0.1,2.7
			c0.1,0.7,0.3,1.2,0.6,1.6c0.3,0.4,0.7,0.6,1.2,0.8c0.5,0.1,1.2,0.2,2.1,0.2c0.9,0,1.6-0.1,2.1-0.2c0.5-0.1,0.9-0.4,1.2-0.8
			c0.3-0.4,0.5-1,0.6-1.6c0.1-0.7,0.1-1.6,0.1-2.7V44.8z"/>
	</g>
</g>
<g id="XMLID_13_">
	<g id="XMLID_14_">
		<polygon id="XMLID_15_" class="st1" points="190.8,32.1 190.7,32.1 190.6,32.1 190.4,32.1 185.9,32.1 185.9,42.2 185.9,42.3 
			185.9,44.1 185.9,44.2 185.9,96.8 185.9,97.4 195.2,98 195.2,96.8 195.2,78.7 195.2,78.7 195.2,77.5 195.2,77.5 195.2,77.3 
			195.2,77.1 195.2,71.6 195.2,71.3 195.2,70.8 195.2,70.7 195.2,69.3 195.2,68.9 195.2,52.3 195.2,52.2 195.2,45.9 195.2,45.5 
			195.2,32.1 		"/>
	</g>
</g>
<g id="XMLID_17_">
	<polygon id="XMLID_18_" class="st2" points="17.3,123.2 17.3,22.7 147.6,10.6 276.6,22.3 276.6,123.2 147.6,156.7 	"/>
</g>
<g id="XMLID_19_">
	<path id="XMLID_20_" class="st1" d="M147.6,13.3l126.3,11.5v96.4L147.6,154L20,121.1v-96L147.6,13.3 M147.6,8l-0.5,0L19.5,19.8
		l-4.9,0.5v4.9v96v4.1l4,1l127.6,32.8l1.4,0.4l1.4-0.4l126.3-32.8l4-1v-4.1V24.8v-4.9l-4.9-0.4L148.1,8L147.6,8L147.6,8z"/>
</g>
<g id="XMLID_23_">
	<path id="XMLID_24_" class="st1" d="M73.1,117.9l-2.4,5.2c-0.1,0.3-0.3,0.6-0.5,0.6c-0.7,0-1.3-0.7-1.3-1.6c0-1.5,1.2-4,1.8-5.3
		l0.3-0.6c0.5-1.1-0.6-1-1.5-0.6l-0.3-0.5c0.9-0.5,2.3-1.4,3.6-1.4c0.8,0,1.5,0.3,1.5,1.2c0,0.2,0,0.4-0.1,0.6c1-1,2.3-1.8,3.8-1.8
		c2.1,0,2.5,1.1,2.4,2.3c1.1-1.3,2.5-2.3,4.2-2.3c3.8,0,2.3,3.5,1.3,5.4l-0.4,0.9c-0.3,0.7-0.8,1.7,0.5,1.7c1.5,0,3.1-1.5,3.9-2.3
		l0.4,0.4c-1.5,2-4,4-6.5,4c-1.5,0-2.5-1.5-1.6-3.2l1-2c0.5-1.1,1.2-2.8-0.4-2.8c-1.2,0-2.3,0.9-3,2.3l-2.4,5.2
		c-0.1,0.3-0.3,0.6-0.5,0.6c-0.7,0-1.3-0.7-1.3-1.6c0-1,0.5-2.3,1.4-4.3c0.4-1,0.6-2.1-0.7-2.1C74.8,115.6,73.7,116.6,73.1,117.9z"
		/>
	<path id="XMLID_26_" class="st1" d="M94.6,121.9c2.8,0,5.4-1.7,7.5-4.1l0.5,0.4c-2.2,3.6-5.7,5.5-9.5,5.5c-1.9,0-4.5-0.5-4.5-3
		c0-3.5,4-7,8-7c1.6,0,2.3,0.9,2.3,2c0,3.2-5.2,5.1-6.8,5.1C92.5,121.7,93.6,121.9,94.6,121.9z M96,116.2c0-0.4-0.2-0.6-0.7-0.6
		c-1.7,0-2.9,2.2-3.3,3.7C94.1,119.3,96,117.3,96,116.2z"/>
	<path id="XMLID_29_" class="st1" d="M102.6,116.3c0.5-1.3-0.5-1.2-1.4-0.8l-0.3-0.5c0.9-0.5,2.3-1.4,3.6-1.4c0.8,0,1.5,0.3,1.5,1.2
		c0,0.2,0,0.4-0.1,0.6c1-1,2.2-1.8,3.6-1.8c1,0,1.6,0.7,1.6,1.5c0,1.3-1.4,2.5-2.7,2.8l-0.2-0.5c0.5-0.2,0.9-0.6,0.9-1
		c0-0.4-0.3-0.7-1-0.7c-1.5,0-2.5,1.1-3.2,2.3l-2.4,5.2c-0.2,0.3-0.3,0.6-0.5,0.6c-0.7,0-1.3-0.7-1.3-1.6c0-1.5,1.2-3.9,1.8-5.2
		L102.6,116.3z"/>
	<path id="XMLID_31_" class="st1" d="M122.1,119.2c-1.8,2.3-5.1,4.4-8.1,4.4c-2,0-3.7-1.1-3.7-3.1c0-3.3,3.5-6.9,7.7-6.9
		c1.3,0,1.8,0.6,1.8,1.3c0,1.1-1.3,2.6-2.8,2.9l-0.2-0.3c0.5-0.3,0.9-0.8,0.9-1.2c0-0.3-0.2-0.6-0.6-0.6c-1.9,0-3.5,2.3-3.5,3.9
		c0,1,0.6,2.1,2.1,2.1c1.9,0,4.1-1.2,6.1-2.8L122.1,119.2z"/>
	<path id="XMLID_33_" class="st1" d="M135.1,119.6c-1.5,2-4,4-6.5,4c-1.5,0-2.5-1.5-1.6-3.2l1-2c0.5-1.1,1.2-2.8-0.4-2.8
		c-1.3,0-2.4,1.1-3,2.3l-2.4,5.2c-0.1,0.3-0.3,0.6-0.5,0.6c-0.7,0-1.3-0.7-1.3-1.6c0-1.5,1.2-4,1.8-5.3l3.2-6.7
		c0.7-1.5-0.4-1.4-1.3-1l-0.3-0.5c0.9-0.5,2.3-1.4,3.6-1.4c0.8,0,1.5,0.3,1.5,1.2c0,0.4-0.1,1-0.4,1.6l-2.5,5.3
		c1-0.9,2.2-1.6,3.6-1.6c3.8,0,2.3,3.5,1.3,5.4l-0.4,0.9c-0.3,0.7-0.8,1.7,0.5,1.7c1.5,0,3.1-1.5,3.9-2.3L135.1,119.6z"/>
	<path id="XMLID_35_" class="st1" d="M143.7,119.9c-0.3,0.7-0.8,1.7,0.5,1.7c1.5,0,3.5-1.5,4.2-2.3l0.4,0.4c-1.5,2-4.3,4-6.8,4
		c-1.3,0-2.1-1-1.9-2.4c-1.1,1.2-2.3,2.4-4.1,2.4c-1.5,0-2.7-1-2.7-2.8c0-3.3,4-7.2,8.1-7.2c1,0,2.2,0.4,2.8,1.2
		c0.7-0.2,1.2-0.8,1.9-1.8l0.5,0.2L143.7,119.9z M141,119.1c0.6-1.3,0.7-1.9,0.7-2.4c0-0.7-0.4-1.2-1.1-1.2c-2.3,0-3.9,2.9-3.9,4.6
		c0,0.8,0.5,1.3,1.3,1.3C139.2,121.5,140.4,120.4,141,119.1z"/>
	<path id="XMLID_38_" class="st1" d="M162.5,119.6c-1.5,2-4,4-6.5,4c-1.5,0-2.5-1.5-1.6-3.2l0.9-2c0.5-1.1,1.2-2.8-0.4-2.8
		c-1.3,0-2.5,1-3,2.3l-2.4,5.2c-0.1,0.3-0.3,0.6-0.5,0.6c-0.7,0-1.3-0.7-1.3-1.6c0-1.5,1.2-3.9,1.8-5.3l0.2-0.5
		c0.6-1.2-0.5-1.2-1.4-0.8l-0.3-0.5c0.9-0.5,2.3-1.4,3.6-1.4c0.8,0,1.5,0.3,1.5,1.2c0,0.2,0,0.4-0.1,0.7c1-1,2.3-1.8,3.8-1.8
		c3.8,0,2.3,3.5,1.3,5.4l-0.4,0.8c-0.3,0.7-0.8,1.7,0.5,1.7c1.5,0,3.1-1.5,3.9-2.3L162.5,119.6z"/>
	<path id="XMLID_40_" class="st1" d="M171,119.9c-0.3,0.7-0.8,1.7,0.5,1.7c1.5,0,3.6-2,4.4-2.8l0.4,0.4c-1.5,2-4.5,4.6-7,4.6
		c-1.3,0-2.1-1-1.9-2.3c-1,1.2-2.4,2.3-4.1,2.3c-1.5,0-2.7-1-2.7-2.8c0-2.8,3.5-7.2,7-7.2c1.3,0,2.1,0.7,2.5,1.5l2.8-6.1h0.5
		c1.2,0,1.8-0.6,2.8-1.9l0.5,0.2L171,119.9z M164,120.2c0,0.8,0.4,1.3,1.2,1.3c2,0,3.7-2.7,3.7-4.5c0-0.8-0.4-1.5-1.4-1.5
		C165.7,115.6,164,118.4,164,120.2z"/>
	<path id="XMLID_43_" class="st1" d="M178.3,119.9c-0.3,0.7-0.8,1.7,0.5,1.7c1.5,0,3.1-1.5,3.9-2.3l0.4,0.4c-1.5,2-4,4-6.5,4
		c-1.5,0-2.5-1.5-1.6-3.2l1.8-4c0.6-1.4-0.5-1.3-1.4-0.9l-0.3-0.5c0.9-0.5,2.3-1.4,3.6-1.4c0.8,0,1.5,0.3,1.5,1.2
		c0,0.4-0.1,1-0.4,1.6L178.3,119.9z M181.3,109.4c0.6,0,0.9,0.3,0.9,0.8c0,1.1-1.3,2.1-2.3,2.1c-0.6,0-0.9-0.3-0.9-0.8
		C179,110.5,180.2,109.4,181.3,109.4z"/>
	<path id="XMLID_46_" class="st1" d="M195.9,118.8c-2.3,2.9-5.5,4.8-9.4,4.8c-3.1,0-5-1.3-5-3.1c0-2.9,4.2-4.8,7-6.1l1.4-0.7
		c0.2-0.1,0.3-0.2,0.4-0.2c0.1,0,0.1,0,0.1,0.1c0,0.3-0.4,0.9-0.4,1.8c0,2.2,1.3,2.7,1.3,4.5c0,0.2,0,0.7-0.4,1.3
		c2-0.7,3.8-2.2,4.5-2.9L195.9,118.8z M184.6,119.9c0,1.2,1.2,1.9,2,1.9c0.9,0,1.8-0.7,1.8-1.8c0-1.3-0.7-1.4-0.7-2.5
		c0-0.4,0.1-0.8,0.4-1.3C186.6,116.9,184.6,118,184.6,119.9z"/>
	<path id="XMLID_49_" class="st1" d="M196.9,119.9c-0.3,0.7-0.8,1.7,0.5,1.7c1.5,0,3.1-1.5,3.9-2.3l0.4,0.4c-1.5,2-4,4-6.5,4
		c-1.5,0-2.5-1.5-1.6-3.2l1.8-4c0.6-1.4-0.5-1.3-1.4-0.9l-0.3-0.5c0.9-0.5,2.3-1.4,3.6-1.4c0.8,0,1.5,0.3,1.5,1.2
		c0,0.4-0.1,1-0.4,1.6L196.9,119.9z M199.9,109.4c0.6,0,0.9,0.3,0.9,0.8c0,1.1-1.3,2.1-2.3,2.1c-0.6,0-0.9-0.3-0.9-0.8
		C197.6,110.5,198.8,109.4,199.9,109.4z"/>
	<path id="XMLID_52_" class="st1" d="M215.4,119.6c-1.5,2-4,4-6.5,4c-1.5,0-2.5-1.5-1.6-3.2l0.9-2c0.5-1.1,1.2-2.8-0.4-2.8
		c-1.3,0-2.5,1-3,2.3l-2.4,5.2c-0.1,0.3-0.3,0.6-0.5,0.6c-0.7,0-1.3-0.7-1.3-1.6c0-1.5,1.2-3.9,1.8-5.3l0.2-0.5
		c0.6-1.2-0.5-1.2-1.4-0.8l-0.3-0.5c0.9-0.5,2.3-1.4,3.6-1.4c0.8,0,1.5,0.3,1.5,1.2c0,0.2,0,0.4-0.1,0.7c1-1,2.3-1.8,3.8-1.8
		c3.8,0,2.3,3.5,1.3,5.4l-0.4,0.8c-0.3,0.7-0.8,1.7,0.5,1.7c1.5,0,3.1-1.5,3.9-2.3L215.4,119.6z"/>
	<path id="XMLID_54_" class="st1" d="M223.6,120.6c-1.8,4-4.6,10.1-9.8,10.1c-2.9,0-4.5-2-4.5-3.9c0-1.4,0.9-2.8,2.8-3.4l0.2,0.5
		c-0.6,0.3-1.1,1.1-1.1,1.7c0,1.5,1.3,2.5,2.8,2.5c3,0,5-4.4,6.1-6.7c-1,1.1-2.3,2.1-3.9,2.1c-1.5,0-2.7-1-2.7-2.8
		c0-3.3,4-7.2,8.1-7.2c1,0,2.1,0.4,2.8,1.2c0.6-0.2,1.2-0.8,1.9-1.8l0.5,0.2L223.6,120.6z M221.9,116.8c0-0.7-0.4-1.2-1.1-1.2
		c-2.3,0-3.9,2.9-3.9,4.6c0,0.8,0.5,1.3,1.3,1.3C220.3,121.5,221.9,118.5,221.9,116.8z"/>
</g>
<g id="XMLID_57_">
	<polygon id="XMLID_58_" class="st1" points="62.4,117.2 62.4,120.8 36,119 	"/>
</g>
<g id="XMLID_59_">
	<polygon id="XMLID_1_" class="st1" points="228.9,117.2 228.9,120.8 255.3,119 	"/>
</g>
<path id="XMLID_60_" class="st1" d="M63,38.4c-0.4-1.7-1-3-2-3.9c-1-0.9-2.4-1.5-4.1-1.8c-1.4-0.2-3.2-0.4-5.2-0.4v0h-2v0H49v0H36.7
	l-0.1,72.5l9.4-1.8v-23v-1.9v-0.5v-1.7v-0.7v-1.7v-1.3h4c2.7,0,4.9-0.1,6.7-0.4c1.7-0.3,3.1-0.9,4.1-1.8c1-0.9,1.7-2.3,2.1-4
	c0.4-1.7,0.6-4,0.6-6.9V45.2C63.5,42.4,63.3,40.1,63,38.4z M54.1,59.3c0,1.1-0.1,2-0.2,2.6c-0.1,0.7-0.3,1.2-0.6,1.6
	c-0.3,0.4-0.7,0.6-1.2,0.8c-0.5,0.1-1.2,0.2-2,0.2h-4V40.3h0.1h0.1h0.3h0.4h0.1h2.9c0.9,0,1.6,0.1,2.2,0.2c0.5,0.1,0.9,0.4,1.2,0.7
	c0.3,0.4,0.4,0.9,0.5,1.5c0.1,0.7,0.1,1.5,0.1,2.5v10v0.3v0.2v0.8V59.3z"/>
<polygon id="XMLID_63_" class="st1" points="78.5,66.7 78.5,66.6 78.5,66.4 78.5,66.3 78.5,66.2 78.5,63.9 78.5,32.1 69.2,32.1 
	69.2,100.1 78.5,99.2 78.5,96.4 78.5,96.4 78.5,68.2 78.5,67.7 78.5,67 "/>
<path id="XMLID_64_" class="st1" d="M110.1,32.1C110.1,32.1,110.1,32.1,110.1,32.1C110.1,32.1,110.1,32.1,110.1,32.1h-4.2v17.1v0.5
	V50v1.9v0.7v0.4v0.2v0.3v0.3v19.5c0,0,0,0,0,0c0,0,0,0,0,0.1h-0.1h-0.2l-2.3-10l0-0.1l-0.1-0.5l0,0l-0.1-0.3l-6.8-30.2H86V82
	c0,0,0,0,0,0c0,0,0,0,0,0v16.6l7.6-0.5H94V98v-0.8v-10v-0.6v-0.2v-0.6V56.3h0.3l9.9,41.1L114,97v-2v-0.3v-2.9v-0.2v-9.3v-0.2V69.1
	v-0.3v-0.8v-0.5V67v-0.8V65v-0.5V64v-0.1v-1.7v-0.2v-8v-0.5V53v0v-0.2v0v-0.5v-0.1v-2.1v-1V49v-0.2v-0.2v-0.3V48v-0.1v-5.7V42v-0.1
	v-0.3v-1.2v-0.5v-2v-0.2V34v-0.2v-0.8v-0.1v-0.8v0H110.1z"/>
<g id="XMLID_65_">
	<path id="XMLID_66_" class="st1" d="M147.3,38.2c-0.4-1.7-1-3.1-2.1-4c-1-0.9-2.4-1.5-4.1-1.8c-1.8-0.3-4-0.5-6.8-0.5h-13.5v0.3
		v2.3h0v2.1h0v7.4v0v0c0,0,0,0,0,0v0.5v0v24v0.3v0.2v0.2V70v3.6V75v0.9v0v0.8v1.8v0.8v0.8v0.3v0.4v15.9l9.4-0.2V80.1v-7.9h0.1h0.5
		h3.5c2.7,0,5-0.1,6.7-0.4c1.8-0.3,3.1-0.9,4.1-1.8c1-0.9,1.7-2.3,2.1-4c0.4-1.8,0.6-4.1,0.6-7V45.1
		C147.8,42.2,147.6,39.9,147.3,38.2z M138.1,50v0.6v1.3v0.6v6.9c0,1.1-0.1,2-0.2,2.6c-0.1,0.7-0.3,1.2-0.6,1.6
		c-0.3,0.4-0.7,0.6-1.2,0.8c-0.5,0.1-1.2,0.2-2,0.2H134c0,0,0,0,0,0c0,0,0,0-0.1,0c0,0,0,0,0,0c0,0,0,0,0,0h-3.6V40.3h3.9
		c0.9,0,1.6,0.1,2.2,0.2c0.5,0.1,0.9,0.4,1.2,0.7c0.3,0.4,0.4,0.9,0.5,1.5c0.1,0.7,0.1,1.5,0.1,2.5V50z"/>
</g>
<polygon id="XMLID_69_" class="st1" points="222.4,32.1 222.4,32.2 222.3,32.2 222.3,73.4 222.1,73.4 217.9,54.9 217.9,54.9 
	217.8,54.2 216.8,50.1 215.7,45 215.4,43.6 215.3,43.1 215.2,43 215.2,43 215.2,42.8 215.2,42.8 215.2,42.8 215,42.1 213.4,34.7 
	213.4,34.7 213.2,34 212.8,32.1 210.5,32.1 203.3,32.1 203,32.1 202.8,32.1 202.8,32.1 202.5,32.1 202.5,37.9 202.5,38.4 
	202.5,38.6 202.5,39.1 202.5,39.7 202.5,39.9 202.5,52.1 202.5,52.1 202.5,54 202.5,54.6 202.5,57.6 202.5,57.8 202.5,60.4 
	202.5,60.6 202.5,60.8 202.5,60.9 202.5,62.3 202.5,62.7 202.5,72.2 202.5,72.7 202.5,88.5 202.5,88.6 202.5,98.2 202.5,98.3 
	202.5,98.5 202.5,98.6 210.5,99.3 210.5,98.5 210.5,68.1 210.5,67.8 210.5,65.7 210.5,65.5 210.5,65.3 210.5,65.2 210.5,56.3 
	210.8,56.3 221.5,100.5 230.5,101.6 230.5,98.6 230.5,32.2 230.5,32.1 "/>
<polygon id="XMLID_70_" class="st1" points="254.7,32.1 254.4,32.1 254.1,32.1 253.9,32.1 251.6,32.1 251.3,32.1 242,32.1 
	241.5,32.1 234.9,32.1 234.9,40 242,40 242,78 242,78.4 242,103.1 242,103.1 251.3,104.7 251.3,40 258.3,40 258.3,32.1 "/>
<text id="XMLID_71_" transform="matrix(1 0 0 1 282.5118 25.1735)" class="st1 st3 st4">TM</text>
</svg>
